<svg xmlns="http://www.w3.org/2000/svg" width="390" height="844" viewBox="0 0 390 844">
  <defs>
    <linearGradient id="sky" x1="0" y1="0" x2="0" y2="1">
      <stop offset="0%" stop-color="#0A1024"/><stop offset="100%" stop-color="#05070F"/>
    </linearGradient>
    <radialGradient id="violet"><stop offset="0%" stop-color="#6145A9" stop-opacity="0.55"/><stop offset="100%" stop-color="#6145A9" stop-opacity="0"/></radialGradient>
    <radialGradient id="teal"><stop offset="0%" stop-color="#1E768C" stop-opacity="0.45"/><stop offset="100%" stop-color="#1E768C" stop-opacity="0"/></radialGradient>
    <radialGradient id="planet" cx="31%" cy="19%" r="72%">
      <stop offset="0%" stop-color="#3E3460"/><stop offset="100%" stop-color="#100E21"/>
    </radialGradient>
    <filter id="soft" x="-60%" y="-60%" width="220%" height="220%"><feGaussianBlur stdDeviation="5"/></filter>
    <filter id="rim" x="-60%" y="-60%" width="220%" height="220%"><feGaussianBlur stdDeviation="3"/></filter>
  </defs>

  <rect width="390" height="844" fill="url(#sky)"/>
  <ellipse cx="86" cy="219" rx="230" ry="230" fill="url(#violet)"/>
  <ellipse cx="335" cy="523" rx="185" ry="185" fill="url(#teal)"/>

  <g>
    <circle cx="176.4" cy="472.4" r="1.06" fill="#BADBFF" opacity="0.37"/>
    <circle cx="333.5" cy="160.3" r="0.99" fill="#FFE2C8" opacity="0.37"/>
    <circle cx="309.3" cy="79.4" r="0.72" fill="#E8EEFF" opacity="0.27"/>
    <circle cx="232.2" cy="334.4" r="0.80" fill="#E8EEFF" opacity="0.43"/>
    <circle cx="24.6" cy="30.1" r="1.03" fill="#E8EEFF" opacity="0.4"/>
    <circle cx="127.3" cy="498.8" r="0.66" fill="#E8EEFF" opacity="0.31"/>
    <circle cx="194.9" cy="559.1" r="0.80" fill="#BADBFF" opacity="0.32"/>
    <circle cx="276.0" cy="266.1" r="0.68" fill="#E8EEFF" opacity="0.32"/>
    <circle cx="219.6" cy="91.1" r="0.61" fill="#E8EEFF" opacity="0.32"/>
    <circle cx="0.2" cy="177.0" r="1.05" fill="#E8EEFF" opacity="0.37"/>
    <circle cx="163.7" cy="477.9" r="0.66" fill="#E8EEFF" opacity="0.42"/>
    <circle cx="34.0" cy="280.7" r="1.08" fill="#E8EEFF" opacity="0.44"/>
    <circle cx="52.5" cy="596.7" r="0.56" fill="#E8EEFF" opacity="0.37"/>
    <circle cx="69.3" cy="472.0" r="0.80" fill="#E8EEFF" opacity="0.3"/>
    <circle cx="163.5" cy="323.9" r="0.77" fill="#E8EEFF" opacity="0.5"/>
    <circle cx="313.3" cy="256.7" r="1.04" fill="#E8EEFF" opacity="0.3"/>
    <circle cx="388.4" cy="508.1" r="0.87" fill="#E8EEFF" opacity="0.26"/>
    <circle cx="83.2" cy="218.0" r="0.97" fill="#E8EEFF" opacity="0.33"/>
    <circle cx="150.6" cy="62.7" r="0.66" fill="#E8EEFF" opacity="0.41"/>
    <circle cx="234.5" cy="313.7" r="0.80" fill="#E8EEFF" opacity="0.49"/>
    <circle cx="324.6" cy="114.6" r="0.76" fill="#E8EEFF" opacity="0.41"/>
    <circle cx="354.3" cy="690.2" r="0.69" fill="#BADBFF" opacity="0.3"/>
    <circle cx="344.1" cy="509.4" r="0.78" fill="#E8EEFF" opacity="0.28"/>
    <circle cx="199.8" cy="215.4" r="0.96" fill="#E8EEFF" opacity="0.35"/>
    <circle cx="321.2" cy="503.4" r="0.71" fill="#E8EEFF" opacity="0.29"/>
    <circle cx="49.3" cy="404.5" r="0.91" fill="#E8EEFF" opacity="0.4"/>
    <circle cx="79.6" cy="14.0" r="0.70" fill="#E8EEFF" opacity="0.36"/>
    <circle cx="18.2" cy="238.0" r="0.84" fill="#E8EEFF" opacity="0.49"/>
    <circle cx="382.4" cy="554.5" r="0.93" fill="#E8EEFF" opacity="0.4"/>
    <circle cx="185.2" cy="301.7" r="0.72" fill="#FFE2C8" opacity="0.26"/>
    <circle cx="248.1" cy="407.0" r="0.95" fill="#E8EEFF" opacity="0.33"/>
    <circle cx="29.4" cy="460.9" r="0.96" fill="#E8EEFF" opacity="0.48"/>
    <circle cx="137.2" cy="578.3" r="1.05" fill="#E8EEFF" opacity="0.47"/>
    <circle cx="368.3" cy="25.5" r="0.82" fill="#E8EEFF" opacity="0.25"/>
    <circle cx="147.9" cy="10.5" r="0.59" fill="#E8EEFF" opacity="0.27"/>
    <circle cx="284.0" cy="327.8" r="0.95" fill="#E8EEFF" opacity="0.4"/>
    <circle cx="180.4" cy="456.8" r="0.84" fill="#E8EEFF" opacity="0.38"/>
    <circle cx="234.5" cy="405.9" r="0.68" fill="#E8EEFF" opacity="0.42"/>
    <circle cx="304.2" cy="557.2" r="0.82" fill="#E8EEFF" opacity="0.47"/>
    <circle cx="117.4" cy="572.3" r="0.66" fill="#E8EEFF" opacity="0.29"/>
    <circle cx="257.4" cy="373.0" r="1.04" fill="#E8EEFF" opacity="0.33"/>
    <circle cx="77.4" cy="363.7" r="0.99" fill="#E8EEFF" opacity="0.48"/>
    <circle cx="149.9" cy="492.1" r="0.72" fill="#E8EEFF" opacity="0.28"/>
    <circle cx="15.8" cy="54.1" r="1.09" fill="#E8EEFF" opacity="0.46"/>
    <circle cx="175.8" cy="232.2" r="0.67" fill="#BADBFF" opacity="0.35"/>
    <circle cx="192.6" cy="266.2" r="1.01" fill="#E8EEFF" opacity="0.5"/>
    <circle cx="108.5" cy="512.8" r="0.92" fill="#E8EEFF" opacity="0.32"/>
    <circle cx="120.5" cy="668.0" r="0.56" fill="#E8EEFF" opacity="0.28"/>
    <circle cx="74.1" cy="649.2" r="0.70" fill="#E8EEFF" opacity="0.44"/>
    <circle cx="383.8" cy="97.3" r="0.61" fill="#E8EEFF" opacity="0.38"/>
    <circle cx="373.8" cy="577.7" r="0.66" fill="#E8EEFF" opacity="0.37"/>
    <circle cx="278.5" cy="637.3" r="0.84" fill="#E8EEFF" opacity="0.26"/>
    <circle cx="106.2" cy="291.8" r="0.93" fill="#FFE2C8" opacity="0.38"/>
    <circle cx="388.8" cy="134.4" r="1.02" fill="#E8EEFF" opacity="0.42"/>
    <circle cx="281.7" cy="109.6" r="0.80" fill="#E8EEFF" opacity="0.41"/>
    <circle cx="147.0" cy="480.1" r="1.03" fill="#E8EEFF" opacity="0.45"/>
    <circle cx="180.8" cy="549.7" r="0.66" fill="#E8EEFF" opacity="0.43"/>
    <circle cx="209.4" cy="667.4" r="0.73" fill="#E8EEFF" opacity="0.48"/>
    <circle cx="135.9" cy="69.9" r="0.79" fill="#E8EEFF" opacity="0.39"/>
    <circle cx="190.1" cy="24.0" r="1.00" fill="#E8EEFF" opacity="0.27"/>
    <circle cx="67.4" cy="282.7" r="0.98" fill="#E8EEFF" opacity="0.29"/>
    <circle cx="202.1" cy="572.1" r="0.79" fill="#FFE2C8" opacity="0.47"/>
    <circle cx="370.2" cy="72.6" r="0.67" fill="#E8EEFF" opacity="0.38"/>
    <circle cx="324.2" cy="473.9" r="0.64" fill="#BADBFF" opacity="0.38"/>
    <circle cx="100.0" cy="566.6" r="1.08" fill="#FFE2C8" opacity="0.47"/>
    <circle cx="377.7" cy="442.4" r="0.87" fill="#BADBFF" opacity="0.3"/>
    <circle cx="44.6" cy="4.2" r="0.76" fill="#E8EEFF" opacity="0.38"/>
    <circle cx="201.2" cy="338.1" r="0.99" fill="#E8EEFF" opacity="0.39"/>
    <circle cx="36.4" cy="140.8" r="1.06" fill="#E8EEFF" opacity="0.36"/>
    <circle cx="105.0" cy="399.3" r="0.62" fill="#E8EEFF" opacity="0.36"/>
    <circle cx="204.7" cy="91.7" r="0.78" fill="#E8EEFF" opacity="0.26"/>
    <circle cx="50.5" cy="657.7" r="0.56" fill="#E8EEFF" opacity="0.3"/>
    <circle cx="4.6" cy="239.8" r="0.95" fill="#E8EEFF" opacity="0.31"/>
    <circle cx="40.9" cy="616.9" r="0.62" fill="#E8EEFF" opacity="0.38"/>
    <circle cx="279.9" cy="592.0" r="1.03" fill="#E8EEFF" opacity="0.26"/>
    <circle cx="321.8" cy="519.7" r="0.85" fill="#BADBFF" opacity="0.47"/>
    <circle cx="249.0" cy="447.0" r="1.02" fill="#E8EEFF" opacity="0.4"/>
    <circle cx="90.7" cy="625.2" r="1.00" fill="#E8EEFF" opacity="0.48"/>
    <circle cx="75.9" cy="656.9" r="0.66" fill="#E8EEFF" opacity="0.27"/>
    <circle cx="51.7" cy="74.4" r="0.76" fill="#E8EEFF" opacity="0.36"/>
    <circle cx="211.9" cy="594.9" r="0.66" fill="#E8EEFF" opacity="0.41"/>
    <circle cx="37.5" cy="481.0" r="0.75" fill="#E8EEFF" opacity="0.46"/>
    <circle cx="45.0" cy="426.8" r="0.97" fill="#E8EEFF" opacity="0.38"/>
    <circle cx="313.1" cy="406.9" r="0.56" fill="#FFE2C8" opacity="0.44"/>
    <circle cx="200.8" cy="480.0" r="0.63" fill="#E8EEFF" opacity="0.3"/>
    <circle cx="67.3" cy="133.4" r="0.71" fill="#FFE2C8" opacity="0.42"/>
    <circle cx="180.2" cy="645.4" r="0.73" fill="#BADBFF" opacity="0.37"/>
    <circle cx="138.3" cy="177.3" r="0.76" fill="#E8EEFF" opacity="0.41"/>
    <circle cx="329.3" cy="153.0" r="0.80" fill="#E8EEFF" opacity="0.43"/>
    <circle cx="359.5" cy="510.5" r="0.60" fill="#E8EEFF" opacity="0.45"/>
    <circle cx="348.3" cy="676.6" r="0.94" fill="#E8EEFF" opacity="0.47"/>
    <circle cx="222.2" cy="161.2" r="1.44" fill="#E8EEFF" opacity="0.55"/>
    <circle cx="109.0" cy="98.1" r="1.56" fill="#E8EEFF" opacity="0.5"/>
    <circle cx="52.0" cy="278.4" r="1.40" fill="#E8EEFF" opacity="0.56"/>
    <circle cx="298.4" cy="342.4" r="1.55" fill="#E8EEFF" opacity="0.47"/>
    <circle cx="117.7" cy="85.1" r="1.67" fill="#FFE2C8" opacity="0.75"/>
    <circle cx="19.3" cy="230.4" r="1.73" fill="#E8EEFF" opacity="0.54"/>
    <circle cx="257.3" cy="480.7" r="1.40" fill="#E8EEFF" opacity="0.57"/>
    <circle cx="250.5" cy="591.9" r="1.58" fill="#E8EEFF" opacity="0.74"/>
    <circle cx="44.8" cy="91.2" r="1.17" fill="#BADBFF" opacity="0.58"/>
    <circle cx="19.7" cy="165.0" r="1.28" fill="#E8EEFF" opacity="0.48"/>
    <circle cx="107.5" cy="287.7" r="1.41" fill="#BADBFF" opacity="0.57"/>
    <circle cx="248.8" cy="683.2" r="1.05" fill="#E8EEFF" opacity="0.63"/>
    <circle cx="333.7" cy="457.4" r="1.45" fill="#E8EEFF" opacity="0.58"/>
    <circle cx="164.1" cy="444.6" r="1.45" fill="#E8EEFF" opacity="0.56"/>
    <circle cx="188.5" cy="227.7" r="1.71" fill="#E8EEFF" opacity="0.65"/>
    <circle cx="10.5" cy="652.0" r="1.44" fill="#E8EEFF" opacity="0.64"/>
    <circle cx="294.3" cy="329.1" r="1.68" fill="#E8EEFF" opacity="0.67"/>
    <circle cx="226.9" cy="610.3" r="1.24" fill="#E8EEFF" opacity="0.69"/>
    <circle cx="167.5" cy="403.1" r="1.74" fill="#BADBFF" opacity="0.52"/>
    <circle cx="38.4" cy="683.8" r="1.69" fill="#E8EEFF" opacity="0.49"/>
    <circle cx="235.4" cy="97.1" r="1.47" fill="#E8EEFF" opacity="0.59"/>
    <circle cx="335.8" cy="301.1" r="1.11" fill="#E8EEFF" opacity="0.56"/>
    <circle cx="260.5" cy="384.5" r="1.19" fill="#E8EEFF" opacity="0.62"/>
    <circle cx="142.0" cy="627.8" r="1.62" fill="#E8EEFF" opacity="0.49"/>
    <circle cx="286.4" cy="201.2" r="1.08" fill="#BADBFF" opacity="0.72"/>
    <circle cx="243.7" cy="303.2" r="1.20" fill="#FFE2C8" opacity="0.66"/>
    <circle cx="272.6" cy="160.4" r="1.20" fill="#E8EEFF" opacity="0.52"/>
    <circle cx="195.8" cy="551.1" r="1.14" fill="#E8EEFF" opacity="0.65"/>
    <circle cx="3.7" cy="219.0" r="1.01" fill="#E8EEFF" opacity="0.46"/>
    <circle cx="211.2" cy="61.2" r="1.06" fill="#BADBFF" opacity="0.65"/>
    <circle cx="188.8" cy="298.9" r="1.25" fill="#E8EEFF" opacity="0.6"/>
    <circle cx="327.0" cy="62.7" r="1.08" fill="#FFE2C8" opacity="0.69"/>
    <circle cx="326.8" cy="649.0" r="1.33" fill="#E8EEFF" opacity="0.67"/>
    <circle cx="315.9" cy="311.4" r="1.49" fill="#E8EEFF" opacity="0.75"/>
    <circle cx="113.4" cy="640.6" r="1.63" fill="#E8EEFF" opacity="0.51"/>
    <circle cx="226.4" cy="389.9" r="1.24" fill="#E8EEFF" opacity="0.61"/>
    <circle cx="220.0" cy="409.2" r="1.52" fill="#E8EEFF" opacity="0.54"/>
    <circle cx="29.7" cy="180.0" r="1.50" fill="#E8EEFF" opacity="0.47"/>
    <circle cx="193.0" cy="644.9" r="1.24" fill="#E8EEFF" opacity="0.71"/>
    <circle cx="139.5" cy="612.7" r="1.27" fill="#E8EEFF" opacity="0.49"/>
    <circle cx="170.8" cy="677.8" r="1.22" fill="#E8EEFF" opacity="0.55"/>
    <circle cx="377.4" cy="615.9" r="1.39" fill="#E8EEFF" opacity="0.48"/>
    <circle cx="9.4" cy="571.4" r="1.44" fill="#FFE2C8" opacity="0.69"/>
    <circle cx="143.6" cy="329.4" r="1.11" fill="#E8EEFF" opacity="0.63"/>
    <circle cx="68.9" cy="640.6" r="1.67" fill="#E8EEFF" opacity="0.53"/>
    <circle cx="86.3" cy="48.7" r="1.11" fill="#E8EEFF" opacity="0.54"/>
    <circle cx="254.0" cy="678.8" r="1.04" fill="#BADBFF" opacity="0.61"/>
    <circle cx="32.8" cy="68.9" r="1.56" fill="#E8EEFF" opacity="0.72"/>
    <circle cx="10.1" cy="551.6" r="1.07" fill="#E8EEFF" opacity="0.69"/>
    <circle cx="95.7" cy="186.1" r="1.58" fill="#E8EEFF" opacity="0.61"/>
    <circle cx="153.8" cy="285.1" r="1.74" fill="#E8EEFF" opacity="0.65"/>
    <circle cx="190.3" cy="679.2" r="1.05" fill="#E8EEFF" opacity="0.64"/>
    <circle cx="249.7" cy="442.1" r="2.43" fill="#E8EEFF" opacity="0.94"/>
    <circle cx="95.8" cy="136.9" r="2.35" fill="#E8EEFF" opacity="0.91"/>
    <circle cx="79.7" cy="358.7" r="1.97" fill="#E8EEFF" opacity="0.99"/>
    <circle cx="183.9" cy="616.8" r="1.98" fill="#E8EEFF" opacity="0.75"/>
    <circle cx="355.8" cy="635.6" r="1.67" fill="#E8EEFF" opacity="0.84"/>
    <circle cx="121.9" cy="166.8" r="2.05" fill="#FFE2C8" opacity="0.88"/>
    <circle cx="279.7" cy="502.0" r="1.90" fill="#E8EEFF" opacity="0.76"/>
    <circle cx="365.6" cy="529.0" r="2.69" fill="#E8EEFF" opacity="0.87"/>
    <circle cx="189.1" cy="339.8" r="2.70" fill="#E8EEFF" opacity="0.9"/>
    <circle cx="188.2" cy="186.5" r="1.70" fill="#E8EEFF" opacity="0.98"/>
    <circle cx="380.7" cy="670.7" r="2.50" fill="#E8EEFF" opacity="0.94"/>
    <circle cx="256.4" cy="200.5" r="1.66" fill="#E8EEFF" opacity="0.84"/>
    <circle cx="175.5" cy="208.1" r="2.11" fill="#E8EEFF" opacity="0.96"/>
    <circle cx="61.2" cy="271.6" r="1.94" fill="#BADBFF" opacity="0.96"/>
    <circle cx="51.1" cy="626.0" r="2.33" fill="#E8EEFF" opacity="0.85"/>
    <circle cx="58.8" cy="650.2" r="1.65" fill="#E8EEFF" opacity="0.95"/>
    <circle cx="320.6" cy="69.6" r="1.95" fill="#E8EEFF" opacity="0.91"/>
    <circle cx="347.0" cy="585.5" r="1.74" fill="#BADBFF" opacity="0.92"/>
    <circle cx="334.4" cy="256.2" r="2.52" fill="#E8EEFF" opacity="0.83"/>
    <circle cx="304.8" cy="371.5" r="1.69" fill="#E8EEFF" opacity="0.82"/>
    <circle cx="121.4" cy="262.3" r="1.73" fill="#E8EEFF" opacity="0.79"/>
  </g>

  <!-- planet: crown rising from below the lower edge -->
  <circle cx="195.0" cy="958" r="168" fill="url(#planet)"/>
  <circle cx="195.0" cy="958" r="168" fill="none" stroke="#5FD9E8" stroke-opacity="0.30" stroke-width="1.5" filter="url(#rim)"/>

  <!-- title block -->
  <text x="195.0" y="279.6" text-anchor="middle" dominant-baseline="central"
        font-family="Avenir Next Condensed, Haettenschweiler, Impact, sans-serif"
        font-size="60" font-weight="700" letter-spacing="14" fill="#DCE6FF">UNMOORED</text>
  <line x1="102" y1="317.1" x2="288" y2="317.1" stroke="#5FD9E8" stroke-opacity="0.45" stroke-width="1"/>
  <text x="195.0" y="337.1" text-anchor="middle" dominant-baseline="central"
        font-family="Avenir Next, Helvetica Neue, sans-serif" font-size="11" font-weight="500"
        letter-spacing="2.5" fill="#7A87A8">A DRIFT THROUGH THE QUIET DARK</text>

  <!-- menu -->
  <g>
      <rect x="45.0" y="522.0" width="300" height="64" rx="14" fill="none" stroke="#5FD9E8" stroke-width="3" opacity="0.28" filter="url(#soft)"/>
      <rect x="45.0" y="522.0" width="300" height="64" rx="14" fill="#5FD9E8" fill-opacity="0.92" stroke="#5FD9E8" stroke-opacity="1" stroke-width="1.2"/>
      <text x="195.0" y="554" text-anchor="middle" dominant-baseline="central" font-family="Avenir Next, Helvetica Neue, sans-serif" font-size="17" font-weight="600" letter-spacing="4" fill="#05070F">NEW RUN</text>
      
    </g>
  <g opacity="0.55">
      
      <rect x="45.0" y="602.0" width="300" height="64" rx="14" fill="#FFFFFF" fill-opacity="0.02" stroke="#FFFFFF" stroke-opacity="0.07" stroke-width="1.2"/>
      <text x="195.0" y="643" text-anchor="middle" dominant-baseline="central" font-family="Avenir Next, Helvetica Neue, sans-serif" font-size="17" font-weight="600" letter-spacing="4" fill="#525C75">CONTINUE RUN</text>
      <text x="195.0" y="647" text-anchor="middle" dominant-baseline="central" font-family="Avenir Next, Helvetica Neue, sans-serif" font-size="10" font-weight="500" letter-spacing="2.5" fill="#525C75">NO RUN IN PROGRESS</text>
    </g>
  <g>
      
      <rect x="45.0" y="682.0" width="300" height="64" rx="14" fill="#FFFFFF" fill-opacity="0.05" stroke="#387E8A" stroke-opacity="0.85" stroke-width="1.2"/>
      <text x="195.0" y="714" text-anchor="middle" dominant-baseline="central" font-family="Avenir Next, Helvetica Neue, sans-serif" font-size="17" font-weight="600" letter-spacing="4" fill="#DCE6FF">SETTINGS</text>
      
    </g>

  <text x="195.0" y="776" text-anchor="middle" dominant-baseline="central"
        font-family="Avenir Next, Helvetica Neue, sans-serif" font-size="9" font-weight="500"
        letter-spacing="2.5" fill="#525C75">V0.1.0 (1)</text>
</svg>